<?xml version="1.0" encoding="UTF-8"?>
<svg width="230px" height="42px" viewBox="0 0 230 42" version="1.1" xmlns="http://www.w3.org/2000/svg" xmlns:xlink="http://www.w3.org/1999/xlink">
    <!-- Generator: Sketch 46.2 (44496) - http://www.bohemiancoding.com/sketch -->
    <title>logo/full</title>
    <desc>Created with Sketch.</desc>
    <defs></defs>
    <g id="Symbols" stroke="none" stroke-width="1" fill="none" fill-rule="evenodd">
        <g id="logo/full">
            <path d="M211.122636,17.2732089 C211.286337,20.8967383 212.186693,24.0673265 214.478508,26.908503 C214.80591,23.9849736 214.928686,20.9379147 217.752529,19.4143853 C221.272102,17.5614442 225.078152,16.6143853 229.252529,17.02615 C229.088828,18.8790912 228.63865,20.0732089 226.428686,19.908503 C223.482066,19.7026206 220.699148,20.7320324 217.91623,21.6379147 C217.056799,21.92615 216.852173,22.5026206 216.852173,23.3673265 C216.852173,25.0143853 216.974949,26.7026206 217.547903,28.22615 C218.039006,29.5026206 217.91623,30.5320324 217.302351,31.72615 C216.320145,33.7437971 215.58349,33.9496794 214.11018,32.2202677 C211.531888,29.1320324 209.976728,25.5496794 209.158223,21.5967383 C209.117298,21.3496794 209.035447,21.0614442 208.953597,20.6908559 C207.275661,21.3496794 206.129753,22.008503 207.316586,24.108503 C208.135091,25.5496794 207.316586,27.0732089 206.620856,28.3908559 C205.352173,30.9849736 203.019433,32.0967383 200.318365,32.2202677 C197.862849,32.3437971 196.348614,30.8614442 195.243632,28.7614442 C193.811248,26.0849736 196.062138,20.6908559 199.377084,19.0849736 C200.482066,18.5496794 201.668899,18.3026206 202.855732,17.9732089 C203.837938,17.6849736 205.024771,17.72615 205.147547,18.8379147 C205.270323,19.82615 204.656444,20.9790912 203.30591,21.1437971 C202.773881,21.22615 202.200928,21.1437971 201.668899,21.1437971 C198.558579,21.1849736 197.044344,22.7496794 197.208045,25.6732089 C197.330821,27.8555618 199.990963,29.62615 202.569255,29.2143853 C205.761426,28.7202677 206.620856,26.7026206 204.820145,23.9849736 C204.533668,23.5320324 204.697369,23.2026206 204.820145,22.8732089 C205.474949,20.8143853 208.871746,17.7673265 211.122636,17.2732089 L211.122636,17.2732089 Z M209.035447,13.9790912 C208.503419,10.02615 210.385981,8.00850298 213.578152,8.2555618 C214.355732,8.33791474 214.724059,8.62615004 214.724059,9.32615004 C214.724059,9.98497357 214.519433,10.6026206 213.700928,10.6026206 C211.572814,10.5614442 210.099504,11.508503 209.035447,13.9790912 L209.035447,13.9790912 Z" id="OIR" fill="#FFFFFF"></path>
            <path d="M183.704513,29.1117647 C183.131559,27.2588235 182.763232,25.2823529 181.944727,23.5529412 C181.167146,21.9470588 182.394904,21.2058824 183.049709,20.4235294 C183.745438,19.6 184.113766,20.7117647 184.318392,21.3294118 C184.891346,23.2235294 185.4643,25.1176471 186.569282,26.8058824 C186.937609,27.3823529 187.142235,28.0823529 188.042591,28.3294118 C189.966079,21 193.403801,15.0294118 201.62978,13.1764706 C201.507004,14.9882353 201.015901,16.1411765 199.215189,16.8 C193.567502,18.8588235 191.275687,23.6764706 189.802378,29.0705882 C189.761453,29.1941176 189.802378,29.3588235 189.761453,29.4823529 C189.393125,30.8 189.597751,32.6529412 187.919816,33.0647059 C186.282805,33.4764706 185.791702,31.6647059 184.891346,30.7176471 C184.523018,30.3470588 184.400243,29.6882353 183.581737,29.8117647 C183.29526,30.8411765 182.763232,31.8294118 181.7401,32.5705882 C180.266791,31.7470588 179.652912,30.1411765 178.670705,28.7 C177.442947,30.3058824 176.051488,31.3764706 174.209851,31.9117647 C169.994549,33.1058824 166.270349,29.7294118 167.088855,25.3235294 C167.825509,21.2882353 171.386008,18.0764706 175.478534,17.7882353 C176.215189,17.7470588 177.238321,17.9117647 177.279246,18.6941176 C177.361097,19.8058824 176.788143,20.8352941 175.51946,21.0823529 C174.864655,21.2058824 174.168926,21.0823529 173.473196,21.0823529 C170.526577,21.1647059 168.807716,22.6882353 169.094193,24.9941176 C169.421595,27.7117647 171.999887,29.6470588 174.660029,29.1529412 C177.524798,28.6176471 178.343303,27.5470588 177.07462,25.2 C175.969638,23.1411765 176.869993,21.9470588 178.138677,20.2588235 C179.980314,23.3470588 180.10309,27.2588235 183.704513,29.1117647 L183.704513,29.1117647 Z" id="AV" fill="#FFFFFF"></path>
            <path d="M164.478648,22.916308 C163.741993,22.7927785 163.414591,22.216308 163.005338,21.6810138 C161.859431,20.1986609 160.427046,19.8692491 158.626335,20.4045433 C157.480427,20.733955 156.498221,21.433955 156.293594,22.4633668 C156.048043,23.6986609 157.521352,23.6986609 158.258007,24.1516021 C159.935943,25.0986609 161.736655,25.716308 163.578292,26.1692491 C164.724199,26.4574844 165.338078,27.1574844 165.58363,28.2692491 C165.788256,29.2986609 165.338078,30.1221903 164.560498,30.7810138 C162.268683,32.7986609 159.52669,33.3751315 156.620996,32.8810138 C155.188612,32.633955 154.042705,31.5221903 153.879004,29.6692491 C156.620996,29.6692491 159.52669,30.2457197 162.677936,28.5986609 C161.204626,27.9810138 160.181495,27.5280727 159.117438,27.1574844 C157.071174,26.416308 155.720641,24.933955 154.94306,23.0398374 C153.551601,19.5810138 155.516014,17.0280727 159.199288,17.316308 C163.005338,17.5633668 165.133452,19.8280727 164.478648,22.916308 L164.478648,22.916308 Z" id="S" fill="#FFFFFF"></path>
            <path d="M146.687896,29.3605145 C146.401419,31.419338 145.337362,32.4075733 143.332024,32.7369851 C139.812451,33.2722792 136.661206,32.9428674 134.369391,29.8134557 C134.123839,29.4840439 133.919213,29.1546321 133.755512,28.7840439 C132.077576,23.8428674 136.906757,17.1722792 142.063341,17.2958086 C145.419213,17.3781615 147.056223,20.2605145 145.541989,23.3075733 C144.355156,25.7369851 142.063341,26.6428674 139.853376,27.6722792 C139.239497,27.9605145 138.625618,28.2075733 137.561562,28.6605145 C140.753732,30.1840439 143.659426,29.5663968 146.687896,29.3605145 L146.687896,29.3605145 Z M143.986828,22.8958086 C143.127398,20.6722792 141.490387,20.219338 139.403199,20.6311027 C137.029533,21.0840439 135.76085,22.319338 135.597149,24.419338 C135.474373,25.7781615 136.088252,26.1899262 137.31601,25.819338 C139.5669,25.0369851 141.89964,24.3369851 143.986828,22.8958086 Z" id="E" fill="#FFFFFF"></path>
            <path d="M129.219191,6.58823529 C127.950508,11.4470588 127.745882,15.8117647 128.769013,20.2176471 C129.382892,22.9764706 130.324173,25.6941176 132.288586,27.7529412 C133.843746,29.3588235 133.434494,30.5117647 131.920259,31.8294118 C130.446949,31.1294118 129.914921,29.5647059 128.891789,28.2470588 C127.704956,29.8529412 126.313497,31.0058824 124.39001,31.5823529 C120.215633,32.8176471 116.532359,29.6470588 117.105312,25.2823529 C117.719191,20.7529412 120.215633,18.8176471 124.021682,17.8705882 C125.494992,17.5 125.986095,17.0058824 126.108871,15.4 C126.231647,12.8882353 125.94517,10.2117647 127.50033,7.90588235 C127.868657,7.37058824 128.19606,7.08235294 129.219191,6.58823529 L129.219191,6.58823529 Z M124.267234,20.7941176 C121.156914,20.7941176 119.069725,22.1941176 119.11065,24.2117647 C119.192501,26.8058824 121.279689,28.8647059 123.857981,28.8647059 C126.02702,28.8647059 127.623106,27.7941176 127.623106,26.3117647 C127.582181,23.1823529 126.149796,20.7941176 124.267234,20.7941176 L124.267234,20.7941176 Z" id="D" fill="#FFFFFF"></path>
            <path d="M100.325588,28.8736842 C103.149431,30.1501548 105.973275,29.6560371 108.960819,29.3678019 C109.12452,30.8913313 108.306015,31.8795666 107.037332,32.4148607 C103.476833,33.8972136 99.1796804,32.7854489 96.7241644,29.820743 C96.4786128,29.5325077 96.2739865,29.1619195 96.1102854,28.7913313 C94.3914242,23.7266254 99.3843068,17.0148607 104.622741,17.303096 C107.733061,17.4678019 109.329147,20.3501548 107.978613,23.1501548 C106.628079,25.9913313 103.927011,26.8148607 101.43057,28.0089783 C101.103168,28.1736842 100.612065,28.1736842 100.325588,28.8736842 L100.325588,28.8736842 Z M106.341602,22.9442724 C105.23662,20.6795666 104.131638,20.1854489 101.594271,20.6795666 C99.4661573,21.0913313 98.2793246,22.3266254 97.9928477,24.4678019 C97.8700719,25.620743 98.3202498,26.2383901 99.5070826,25.8678019 C101.880748,25.1266254 104.254414,24.3854489 106.341602,22.9442724 L106.341602,22.9442724 Z" id="E" fill="#FFFFFF"></path>
            <path d="M92.4473805,32.4411671 C89.9100139,29.5999906 88.1502274,26.3058729 87.4135726,22.5588141 C86.5132168,17.82352 86.3085904,13.0470494 88.3548538,8.47646118 C88.5594801,7.98234353 88.6413306,7.24116706 89.3370602,7.44704941 C90.1555655,7.69410824 89.8690886,8.43528471 89.6644623,9.0117553 C89.3370602,9.91763765 89.0915086,10.82352 89.2961349,11.9352847 C93.3068111,9.99999059 97.3993378,8.59999059 102.023893,9.05293177 C101.860192,11.0294024 101.246313,12.0588141 99.118199,11.9764612 C96.0078787,11.8117553 93.1021847,12.8411671 90.237416,13.8705788 C89.0505833,14.2823435 88.9278075,15.1470494 88.9687328,16.1352847 C89.1324338,20.62352 90.237416,24.7823435 93.0612595,28.3646965 C94.7391954,30.42352 94.6982701,30.4646965 92.4473805,32.4411671 L92.4473805,32.4411671 Z" id="T" fill="#FFFFFF"></path>
            <path d="M74.4839858,29.3695028 C77.4715302,30.1106793 80.1725979,30.0695028 83.2419929,28.7106793 C81.727758,28.0106793 80.7046263,27.3518557 79.5996441,26.9812675 C77.594306,26.3636204 76.4483986,24.8812675 75.6298932,23.1930322 C73.9928826,19.8989146 75.9163701,17.0989146 79.5996441,17.3047969 C83.2829181,17.4695028 85.5338078,19.6930322 85.1654804,22.8636204 C84.183274,22.740091 83.7740214,21.8342087 83.2010676,21.2577381 C82.1370107,20.2695028 80.9501779,20.022444 79.6405694,20.3106793 C78.3718861,20.5989146 77.1441281,21.2577381 76.8985765,22.4930322 C76.6530249,23.8106793 78.1672598,23.8930322 78.9857651,24.2636204 C80.6227758,25.0459734 82.3825623,25.622444 84.1014235,26.240091 C86.3932384,27.022444 86.9252669,29.2047969 85.1245552,30.7695028 C82.6281139,32.8695028 79.8042705,33.6518557 76.6120996,32.4577381 C75.2206406,31.9636204 74.8523132,30.8106793 74.4839858,29.3695028 L74.4839858,29.3695028 Z" id="S" fill="#FFFFFF"></path>
            <path d="M59.7802305,25.8279412 C60.2304085,21.7926471 62.3585223,18.6632353 66.6147501,17.5102941 C68.7019387,16.9338235 70.3798747,17.5102941 71.6485579,19.2397059 C72.9172412,20.9691176 72.1396611,22.6161765 71.1165295,24.1808824 C69.9296967,25.9102941 68.0471344,26.6102941 66.287348,27.5161765 C65.5506932,27.8867647 64.5684868,27.8455882 63.9546078,28.9573529 C66.8603017,30.1514706 69.6841451,30.1926471 72.5489138,29.3279412 C72.3442875,31.9220588 71.2802305,32.8279412 68.1699102,33.0338235 C65.9190206,33.1573529 63.7090561,32.8279412 61.7855686,31.5102941 C60.8852127,30.8102941 59.5346789,28.0926471 59.7802305,25.8279412 Z M70.1752483,22.9455882 C69.3158177,20.8455882 67.8015828,20.1867647 65.8780953,20.5161765 C63.3407287,20.9279412 61.9901949,22.1632353 61.7037181,24.3044118 C61.4990917,25.6220588 61.9492697,26.3632353 63.381654,25.9102941 C65.673469,25.1691176 68.0062092,24.3867647 70.1752483,22.9455882 L70.1752483,22.9455882 Z" id="E" fill="#FFFFFF"></path>
            <g id="logo/small">
                <path d="M56.5177936,28.2470588 C55.4128114,32.9823529 49.519573,41.3823529 49.519573,41.3823529 C49.2740214,41.7117647 48.905694,41.3823529 48.905694,41.3823529 C48.6601423,41.1764706 48.905694,40.8470588 48.905694,40.8470588 C49.519573,39.4882353 50.1743772,38.1294118 50.9519573,36.4823529 C54.8807829,28.4941176 51.4021352,20.8764706 51.4021352,20.8764706 C50.2153025,18.1176471 46.3683274,16.4294118 43.4217082,17.1705882 C38.1014235,18.4882353 32.0035587,24.5 32.0035587,24.5 C31.6352313,23.5529412 31.6352313,23.5941176 31.4715302,22.8529412 C35.0729537,18.7764706 41.252669,14.4529412 46.5320285,12.1058824 C52.5071174,9.47058824 57.1725979,13.2176471 57.1725979,19.8882353 C57.1725979,24.0058824 57.3362989,24.7058824 56.5177936,28.2470588 Z M24.0231317,26.4352941 C24.1868327,27.6294118 24.4733096,28.7 24.9234875,29.6058824 C24.3505338,30.1411765 23.2046263,30.6352941 21.1992883,31.2117647 C17.6797153,32.2 14.0782918,33.2294118 10.5177936,33.2705882 C5.77046263,33.3117647 2.29181495,28.9058824 3.35587189,24.6235294 C3.76512456,22.9764706 5.23843416,21.5764706 6.62989324,19.5176471 C10.0266904,28.2058824 13.3825623,28.5764706 24.0231317,26.4352941 Z" id="Combined-Shape" fill="#F8AD32"></path>
                <path d="M2.37366548,13.6705882 C6.58896797,9.59411765 11.3772242,7.12352941 17.1067616,6.62941176 C21.8131673,6.17647059 25.3327402,9.47058824 25.3736655,14.2470588 C25.3736655,15.7705882 25.2918149,17.3352941 25.0462633,18.8588235 C23.0409253,31.2117647 28.0747331,36.1117647 40.5160142,35.8647059 C43.7081851,35.7823529 46.7366548,35.3705882 50.2153025,34.7117647 C50.2153025,34.7117647 57.2953737,33.2294118 60.9786477,29.9764706 C62.1654804,28.9470588 63.2295374,27.6294118 64.2935943,26.4764706 C64.5800712,25.6529412 63.7206406,25.9411765 63.7206406,25.9411765 C55.9857651,29.6470588 51.36121,30.3470588 51.36121,30.3470588 C45.9590747,31.1705882 40.5569395,31.7470588 35.4003559,28.9882353 C31.8807829,27.1352941 30.4483986,24.0470588 30.816726,20.0941176 C31.1032028,16.7588235 31.6352313,13.4235294 31.4715302,10.1294118 C31.1032028,2.84117647 25.7829181,-0.905882353 18.702847,0.823529412 C11.1316726,2.71764706 5.85231317,7.65882353 0.941281139,13.5470588 C-0.368327402,15.1117647 0.0818505338,15.3176471 0.0818505338,15.3176471 C0.0818505338,15.3176471 0.450177936,15.5235294 2.37366548,13.6705882 L2.37366548,13.6705882 Z" id="Shape" fill="#FFFFFF"></path>
            </g>
        </g>
    </g>
</svg>